<mxfile host="app.diagrams.net" modified="2020-09-25T03:05:19.421Z" agent="5.0 (Windows NT 10.0; Win64; x64) AppleWebKit/537.36 (KHTML, like Gecko) Chrome/85.0.4183.102 Safari/537.36 Edg/85.0.564.51" etag="H3i5YrqiP7mOCGon6kmt" version="13.7.5" type="github">
  <diagram id="xtYoGEFQBTo9Hg92oFvr" name="Page-1">
    <mxGraphModel dx="1422" dy="746" grid="1" gridSize="10" guides="1" tooltips="1" connect="1" arrows="1" fold="1" page="1" pageScale="1" pageWidth="827" pageHeight="1169" math="0" shadow="0">
      <root>
        <mxCell id="0" />
        <mxCell id="1" parent="0" />
        <mxCell id="BlsNH_1Np0TODVDlGZ3G-3" value="" style="edgeStyle=orthogonalEdgeStyle;rounded=0;orthogonalLoop=1;jettySize=auto;html=1;" edge="1" parent="1" source="BlsNH_1Np0TODVDlGZ3G-1" target="BlsNH_1Np0TODVDlGZ3G-2">
          <mxGeometry relative="1" as="geometry" />
        </mxCell>
        <mxCell id="BlsNH_1Np0TODVDlGZ3G-5" value="" style="edgeStyle=orthogonalEdgeStyle;rounded=0;orthogonalLoop=1;jettySize=auto;html=1;" edge="1" parent="1" source="BlsNH_1Np0TODVDlGZ3G-1" target="BlsNH_1Np0TODVDlGZ3G-4">
          <mxGeometry relative="1" as="geometry" />
        </mxCell>
        <mxCell id="BlsNH_1Np0TODVDlGZ3G-1" value="loop" style="rounded=0;whiteSpace=wrap;html=1;" vertex="1" parent="1">
          <mxGeometry x="350" y="120" width="120" height="60" as="geometry" />
        </mxCell>
        <mxCell id="BlsNH_1Np0TODVDlGZ3G-2" value="Declarar led 2,3&amp;nbsp;&lt;br&gt;declarar pulsador 4" style="rounded=0;whiteSpace=wrap;html=1;" vertex="1" parent="1">
          <mxGeometry x="550" y="120" width="120" height="60" as="geometry" />
        </mxCell>
        <mxCell id="BlsNH_1Np0TODVDlGZ3G-7" value="" style="edgeStyle=orthogonalEdgeStyle;rounded=0;orthogonalLoop=1;jettySize=auto;html=1;" edge="1" parent="1" source="BlsNH_1Np0TODVDlGZ3G-4" target="BlsNH_1Np0TODVDlGZ3G-6">
          <mxGeometry relative="1" as="geometry" />
        </mxCell>
        <mxCell id="BlsNH_1Np0TODVDlGZ3G-19" value="" style="edgeStyle=orthogonalEdgeStyle;rounded=0;orthogonalLoop=1;jettySize=auto;html=1;" edge="1" parent="1" source="BlsNH_1Np0TODVDlGZ3G-4">
          <mxGeometry relative="1" as="geometry">
            <mxPoint x="550" y="290" as="targetPoint" />
          </mxGeometry>
        </mxCell>
        <mxCell id="BlsNH_1Np0TODVDlGZ3G-4" value="setup" style="rounded=0;whiteSpace=wrap;html=1;" vertex="1" parent="1">
          <mxGeometry x="350" y="260" width="120" height="60" as="geometry" />
        </mxCell>
        <mxCell id="BlsNH_1Np0TODVDlGZ3G-10" value="" style="edgeStyle=orthogonalEdgeStyle;rounded=0;orthogonalLoop=1;jettySize=auto;html=1;" edge="1" parent="1" source="BlsNH_1Np0TODVDlGZ3G-6" target="BlsNH_1Np0TODVDlGZ3G-9">
          <mxGeometry relative="1" as="geometry" />
        </mxCell>
        <mxCell id="BlsNH_1Np0TODVDlGZ3G-6" value="Leer la seÃ±al del pulsador&amp;nbsp;" style="rounded=0;whiteSpace=wrap;html=1;" vertex="1" parent="1">
          <mxGeometry x="350" y="400" width="120" height="60" as="geometry" />
        </mxCell>
        <mxCell id="BlsNH_1Np0TODVDlGZ3G-12" value="" style="edgeStyle=orthogonalEdgeStyle;rounded=0;orthogonalLoop=1;jettySize=auto;html=1;" edge="1" parent="1" source="BlsNH_1Np0TODVDlGZ3G-9" target="BlsNH_1Np0TODVDlGZ3G-11">
          <mxGeometry relative="1" as="geometry" />
        </mxCell>
        <mxCell id="BlsNH_1Np0TODVDlGZ3G-14" value="" style="edgeStyle=orthogonalEdgeStyle;rounded=0;orthogonalLoop=1;jettySize=auto;html=1;" edge="1" parent="1" source="BlsNH_1Np0TODVDlGZ3G-9" target="BlsNH_1Np0TODVDlGZ3G-13">
          <mxGeometry relative="1" as="geometry" />
        </mxCell>
        <mxCell id="BlsNH_1Np0TODVDlGZ3G-9" value="Pulsador ==&amp;nbsp;HIGH" style="rhombus;whiteSpace=wrap;html=1;rounded=0;" vertex="1" parent="1">
          <mxGeometry x="370" y="530" width="110" height="110" as="geometry" />
        </mxCell>
        <mxCell id="BlsNH_1Np0TODVDlGZ3G-17" style="edgeStyle=orthogonalEdgeStyle;rounded=0;orthogonalLoop=1;jettySize=auto;html=1;" edge="1" parent="1" source="BlsNH_1Np0TODVDlGZ3G-11" target="BlsNH_1Np0TODVDlGZ3G-4">
          <mxGeometry relative="1" as="geometry">
            <Array as="points">
              <mxPoint x="140" y="760" />
              <mxPoint x="140" y="290" />
            </Array>
          </mxGeometry>
        </mxCell>
        <mxCell id="BlsNH_1Np0TODVDlGZ3G-11" value="Encender Led 2&lt;br&gt;Apagar Led 3" style="whiteSpace=wrap;html=1;rounded=0;" vertex="1" parent="1">
          <mxGeometry x="175" y="730" width="120" height="60" as="geometry" />
        </mxCell>
        <mxCell id="BlsNH_1Np0TODVDlGZ3G-16" style="edgeStyle=orthogonalEdgeStyle;rounded=0;orthogonalLoop=1;jettySize=auto;html=1;" edge="1" parent="1" source="BlsNH_1Np0TODVDlGZ3G-13" target="BlsNH_1Np0TODVDlGZ3G-4">
          <mxGeometry relative="1" as="geometry">
            <Array as="points">
              <mxPoint x="590" y="860" />
              <mxPoint x="140" y="860" />
              <mxPoint x="140" y="290" />
            </Array>
          </mxGeometry>
        </mxCell>
        <mxCell id="BlsNH_1Np0TODVDlGZ3G-13" value="Pagar Led 2&lt;br&gt;encender led 3" style="whiteSpace=wrap;html=1;rounded=0;" vertex="1" parent="1">
          <mxGeometry x="530" y="730" width="120" height="60" as="geometry" />
        </mxCell>
      </root>
    </mxGraphModel>
  </diagram>
</mxfile>
